HIERARCHY
ROOT hip
{
  OFFSET 0.00112043 5.09927 -9.65472
  CHANNELS 6 Xposition Yposition Zposition Zrotation Xrotation Yrotation
  JOINT abdomen
  {
    OFFSET 0 -1.186 -1.5018
    CHANNELS 3 Zrotation Xrotation Yrotation
    JOINT abdomen2
    {
      OFFSET 0 9.964 0.2134
      CHANNELS 3 Zrotation Xrotation Yrotation
      JOINT chest
      {
        OFFSET 0 13.134 -3.2573
        CHANNELS 3 Zrotation Xrotation Yrotation
        JOINT neck
        {
          OFFSET 0 20.686 -1.6905
          CHANNELS 3 Zrotation Xrotation Yrotation
          JOINT head
          {
            OFFSET 0 7.238 -0.1237
            CHANNELS 3 Zrotation Xrotation Yrotation
            End Site
            {
              OFFSET 0 0 0
            }
          }
        }
        JOINT lCollar
        {
          OFFSET 1.7069 20.075 5.0056
          CHANNELS 3 Zrotation Xrotation Yrotation
          JOINT lShldr
          {
            OFFSET 13.6458 -0.047 -4.849
            CHANNELS 3 Zrotation Xrotation Yrotation
            JOINT lForeArm
            {
              OFFSET 28.3255 -0.9759 2.2888
              CHANNELS 3 Zrotation Xrotation Yrotation
              JOINT lHand
              {
                OFFSET 22.1583 -0.53 10.8316
                CHANNELS 3 Zrotation Xrotation Yrotation
                JOINT lThumb1
                {
                  OFFSET 0.786 0.112 2.5817
                  CHANNELS 3 Zrotation Xrotation Yrotation
                  JOINT lThumb2
                  {
                    OFFSET 0.3601 -0.878 4.2331
                    CHANNELS 3 Zrotation Xrotation Yrotation
                    JOINT lThumb2_End
                    {
                      OFFSET 1.8127 -1.216 2.2227
                      CHANNELS 3 Zrotation Xrotation Yrotation
                      End Site
                      {
                        OFFSET 0.0181 -0.0122 0.0222
                      }
                    }
                  }
                }
                JOINT lCarpal1
                {
                  OFFSET 0.9571 1.114 1.7695
                  CHANNELS 3 Zrotation Xrotation Yrotation
                  JOINT lIndex1
                  {
                    OFFSET 4.1246 0.487 4.1451
                    CHANNELS 3 Zrotation Xrotation Yrotation
                    JOINT lIndex2
                    {
                      OFFSET 3.4052 -1.454 2.7682
                      CHANNELS 3 Zrotation Xrotation Yrotation
                      JOINT lIndex2_End
                      {
                        OFFSET 1.4531 -1.795 1.2713
                        CHANNELS 3 Zrotation Xrotation Yrotation
                        End Site
                        {
                          OFFSET 0.0145 -0.0179 0.0127
                        }
                      }
                    }
                  }
                  JOINT lMid1
                  {
                    OFFSET 5.6954 0.21 2.1184
                    CHANNELS 3 Zrotation Xrotation Yrotation
                    JOINT lMid2
                    {
                      OFFSET 3.9766 -1.54 2.3863
                      CHANNELS 3 Zrotation Xrotation Yrotation
                      JOINT lMid2_End
                      {
                        OFFSET 1.4042 -1.926 1.125
                        CHANNELS 3 Zrotation Xrotation Yrotation
                        End Site
                        {
                          OFFSET 0.014 -0.0193 0.0113
                        }
                      }
                    }
                  }
                }
                JOINT lCarpal2
                {
                  OFFSET 2.0956 0.66 -0.3894
                  CHANNELS 3 Zrotation Xrotation Yrotation
                  JOINT lRing1
                  {
                    OFFSET 5.0395 -0.09 2.4971
                    CHANNELS 3 Zrotation Xrotation Yrotation
                    JOINT lRing2
                    {
                      OFFSET 3.7921 -1.552 1.4806
                      CHANNELS 3 Zrotation Xrotation Yrotation
                      JOINT lRing2_End
                      {
                        OFFSET 1.4655 -1.808 0.9609
                        CHANNELS 3 Zrotation Xrotation Yrotation
                        End Site
                        {
                          OFFSET 0.0147 -0.0181 0.0096
                        }
                      }
                    }
                  }
                  JOINT lPinky1
                  {
                    OFFSET 4.9141 -1.269 0.3591
                    CHANNELS 3 Zrotation Xrotation Yrotation
                    JOINT lPinky2
                    {
                      OFFSET 3.1477 -1.685 0.8462
                      CHANNELS 3 Zrotation Xrotation Yrotation
                      JOINT lPinky2_End
                      {
                        OFFSET 0.8055 -1.585 0.7955
                        CHANNELS 3 Zrotation Xrotation Yrotation
                        End Site
                        {
                          OFFSET 0.0081 -0.0158 0.008
                        }
                      }
                    }
                  }
                }
              }
            }
          }
        }
        JOINT rCollar
        {
          OFFSET -1.7069 20.075 5.0056
          CHANNELS 3 Zrotation Xrotation Yrotation
          JOINT rShldr
          {
            OFFSET -13.6458 -0.047 -4.849
            CHANNELS 3 Zrotation Xrotation Yrotation
            JOINT rForeArm
            {
              OFFSET -28.3255 -0.9759 2.2888
              CHANNELS 3 Zrotation Xrotation Yrotation
              JOINT rHand
              {
                OFFSET -22.1583 -0.53 10.8316
                CHANNELS 3 Zrotation Xrotation Yrotation
                JOINT rThumb1
                {
                  OFFSET -0.786 0.112 2.5817
                  CHANNELS 3 Zrotation Xrotation Yrotation
                  JOINT rThumb2
                  {
                    OFFSET -0.3601 -0.878 4.2331
                    CHANNELS 3 Zrotation Xrotation Yrotation
                    JOINT rThumb2_End
                    {
                      OFFSET -1.8127 -1.216 2.2227
                      CHANNELS 3 Zrotation Xrotation Yrotation
                      End Site
                      {
                        OFFSET -0.0181 -0.0122 0.0222
                      }
                    }
                  }
                }
                JOINT rCarpal1
                {
                  OFFSET -0.9571 1.114 1.7695
                  CHANNELS 3 Zrotation Xrotation Yrotation
                  JOINT rIndex1
                  {
                    OFFSET -4.1246 0.487 4.1451
                    CHANNELS 3 Zrotation Xrotation Yrotation
                    JOINT rIndex2
                    {
                      OFFSET -3.4052 -1.454 2.7682
                      CHANNELS 3 Zrotation Xrotation Yrotation
                      JOINT rIndex2_End
                      {
                        OFFSET -1.4531 -1.795 1.2713
                        CHANNELS 3 Zrotation Xrotation Yrotation
                        End Site
                        {
                          OFFSET -0.0145 -0.018 0.0127
                        }
                      }
                    }
                  }
                  JOINT rMid1
                  {
                    OFFSET -5.6954 0.21 2.1184
                    CHANNELS 3 Zrotation Xrotation Yrotation
                    JOINT rMid2
                    {
                      OFFSET -3.9766 -1.54 2.3863
                      CHANNELS 3 Zrotation Xrotation Yrotation
                      JOINT rMid2_End
                      {
                        OFFSET -1.4042 -1.926 1.125
                        CHANNELS 3 Zrotation Xrotation Yrotation
                        End Site
                        {
                          OFFSET -0.014 -0.0193 0.0113
                        }
                      }
                    }
                  }
                }
                JOINT rCarpal2
                {
                  OFFSET -2.0956 0.66 -0.3894
                  CHANNELS 3 Zrotation Xrotation Yrotation
                  JOINT rRing1
                  {
                    OFFSET -5.0395 -0.09 2.4971
                    CHANNELS 3 Zrotation Xrotation Yrotation
                    JOINT rRing2
                    {
                      OFFSET -3.7921 -1.552 1.4806
                      CHANNELS 3 Zrotation Xrotation Yrotation
                      JOINT rRing2_End
                      {
                        OFFSET -1.4655 -1.808 0.9609
                        CHANNELS 3 Zrotation Xrotation Yrotation
                        End Site
                        {
                          OFFSET -0.0147 -0.0181 0.0096
                        }
                      }
                    }
                  }
                  JOINT rPinky1
                  {
                    OFFSET -4.9141 -1.269 0.3592
                    CHANNELS 3 Zrotation Xrotation Yrotation
                    JOINT rPinky2
                    {
                      OFFSET -3.1477 -1.685 0.8462
                      CHANNELS 3 Zrotation Xrotation Yrotation
                      JOINT rPinky2_End
                      {
                        OFFSET -0.8055 -1.585 0.7955
                        CHANNELS 3 Zrotation Xrotation Yrotation
                        End Site
                        {
                          OFFSET -0.0081 -0.0158 0.008
                        }
                      }
                    }
                  }
                }
              }
            }
          }
        }
      }
    }
  }
  JOINT lThigh
  {
    OFFSET 8.367 -8.2066 0.5982
    CHANNELS 3 Zrotation Xrotation Yrotation
    JOINT lShin
    {
      OFFSET 2.1923 -43.463 -0.4932
      CHANNELS 3 Zrotation Xrotation Yrotation
      JOINT lFoot
      {
        OFFSET 0.7333 -45.8593 -2.6451
        CHANNELS 3 Zrotation Xrotation Yrotation
        End Site
        {
          OFFSET 2.6618 -4.2699 12.3931
        }
      }
    }
  }
  JOINT rThigh
  {
    OFFSET -8.367 -8.2066 0.5982
    CHANNELS 3 Zrotation Xrotation Yrotation
    JOINT rShin
    {
      OFFSET -2.1923 -43.463 -0.4931
      CHANNELS 3 Zrotation Xrotation Yrotation
      JOINT rFoot
      {
        OFFSET -0.7333 -45.8593 -2.6451
        CHANNELS 3 Zrotation Xrotation Yrotation
        End Site
        {
          OFFSET -2.6618 -4.2699 12.3931
        }
      }
    }
  }
}
MOTION
Frames:	6
Frame Time:	0.0333333
0 91.7903 2.51682 0 0 -0 0 0 -0 0 0 -0 0 0 -0 0 0 -0 0 0 -0 0 0 -0 1.66051 0.0835086 5.75766 -0.0175111 0.895433 15.7816 7.95139e-016 -1.98785e-016 -0 5.46658e-016 -3.97569e-016 -0 5.96354e-016 0 -0 3.97569e-016 1.98785e-016 9.54166e-015 1.49089e-016 -3.97569e-016 -0 6.4605e-016 0 3.18055e-015 5.96354e-016 0 3.18055e-015 8.94531e-016 -1.98785e-016 6.36111e-015 6.4605e-016 0 3.18055e-015 5.96354e-016 0 3.18055e-015 8.94531e-016 -1.98785e-016 6.36111e-015 1.49089e-016 -3.97569e-016 -0 6.4605e-016 0 3.18055e-015 5.96354e-016 0 3.18055e-015 8.94531e-016 -1.98785e-016 6.36111e-015 6.4605e-016 0 3.18055e-015 5.96354e-016 0 3.18055e-015 8.94531e-016 -1.98785e-016 6.36111e-015 0 0 -0 -1.4496 0.0636048 -5.0245 -1.74811 1.20616 -16.8394 -1.19271e-015 1.98785e-016 -3.18055e-015 -3.97569e-016 1.98785e-016 -3.18055e-015 -2.98177e-016 1.98785e-016 -3.18055e-015 -2.98177e-016 3.97569e-016 -0 4.96962e-016 0 -6.36111e-015 -9.93923e-017 3.97569e-016 -0 -8.94531e-016 5.96354e-016 -0 -3.97569e-016 3.97569e-016 -0 -9.93923e-017 3.97569e-016 -0 -8.94531e-016 5.96354e-016 -0 -3.97569e-016 3.97569e-016 -0 4.96962e-016 0 -6.36111e-015 -9.93923e-017 3.97569e-016 -0 -8.94531e-016 5.96354e-016 -0 -3.97569e-016 3.97569e-016 -0 -9.93923e-017 3.97569e-016 -0 -8.94531e-016 5.96354e-016 -0 -3.97569e-016 3.97569e-016 -0 -4.66111 -0.998717 0.12318 0.00986924 1.54847 0.176523 4.65186 -0.572283 -0.254274 4.66111 -0.998765 -0.123176 -0.00986867 1.54869 -0.176537 -4.65186 -0.572453 0.25427 
0.764706 18.509 4.07119 178.616 -73.0001 -1.01316 -0.0687109 -4.94946 -0.290607 -0.163649 -9.89831 -0.590522 -0.16365 -9.89832 -0.590523 0.0924594 0.215906 0.106485 -2.75092e-007 0.159109 -2.61624e-007 15.3751 -0.695551 -8.76716 -16.7575 -17.1527 -27.6838 3.0783 6.90648 -38.8201 58.2591 -18.0605 11.2453 -1.3732e-006 -9.99255e-007 -9.72784e-008 -1.87282e-006 -3.12658e-007 -2.29869e-008 -1.07815e-006 -5.02702e-007 -2.57555e-006 3.18055e-015 -1.19271e-015 -3.18055e-015 -1.3732e-006 -9.99255e-007 -9.72784e-008 -1.87282e-006 -3.12658e-007 -2.29869e-008 -1.07815e-006 -5.02702e-007 -2.57555e-006 -1.3732e-006 -9.99255e-007 -9.72784e-008 -1.87282e-006 -3.12658e-007 -2.29869e-008 -1.07815e-006 -5.02702e-007 -2.57555e-006 3.18055e-015 -1.19271e-015 -3.18055e-015 -1.3732e-006 -9.99255e-007 -9.72784e-008 -1.87282e-006 -3.12658e-007 -2.29869e-008 -1.07815e-006 -5.02702e-007 -2.57555e-006 -1.3732e-006 -9.99255e-007 -9.72784e-008 -1.87282e-006 -3.12658e-007 -2.29869e-008 -1.07815e-006 -5.02702e-007 -2.57555e-006 18.7136 -0.15884 -1.64147 7.86683 8.94182 41.19 -12.8538 -15.2788 14.089 -58.2412 -18.1135 -11.786 -1.53218e-007 -1.98735e-007 2.29907e-006 -3.18055e-015 -1.59028e-015 -3.18055e-015 1.53218e-007 1.98735e-007 -2.29907e-006 -0 -3.18055e-015 -0 -1.53218e-007 -1.98735e-007 2.29907e-006 5.29669e-031 3.18055e-015 -9.54166e-015 1.53218e-007 1.98735e-007 -2.29907e-006 -1.53218e-007 -1.98735e-007 2.29907e-006 5.29669e-031 3.18055e-015 -9.54166e-015 1.53218e-007 1.98735e-007 -2.29907e-006 -0 -3.18055e-015 -0 -1.53218e-007 -1.98735e-007 2.29907e-006 5.29669e-031 3.18055e-015 -9.54166e-015 1.53218e-007 1.98735e-007 -2.29907e-006 -1.53218e-007 -1.98735e-007 2.29907e-006 5.29669e-031 3.18055e-015 -9.54166e-015 1.53218e-007 1.98735e-007 -2.29907e-006 22.1015 -54.8194 40.3316 -3.64351 36.1734 2.56716 14.1128 58.555 -16.5389 -22.7802 -55.1013 -41.2549 3.45165 36.896 -2.15403 -14.7652 59.3868 17.1344 
0.766651 18.3859 3.74873 178.553 -74.866 -1.0969 -0.0718497 -4.78598 -0.289555 -0.168959 -9.57161 -0.588255 -0.168959 -9.57159 -0.588255 0.132955 0.360008 0.0628873 -2.7213e-008 0.0928621 4.79364e-008 14.7321 0.0965915 -9.81133 -16.5949 -17.2567 -27.4009 3.10156 6.93912 -37.7235 58.1411 -18.2871 10.481 -8.82781e-032 7.95139e-016 6.36111e-015 -1.32417e-031 1.19271e-015 6.36111e-015 -3.18055e-015 3.97569e-016 3.18055e-015 1.59028e-015 1.19271e-015 3.18055e-015 6.36111e-015 2.26615e-014 9.54166e-015 -3.18055e-015 -1.19271e-015 6.36111e-015 -1.59028e-015 -3.97569e-016 6.36111e-015 6.36111e-015 2.26615e-014 9.54166e-015 -3.18055e-015 -1.19271e-015 6.36111e-015 -1.59028e-015 -3.97569e-016 6.36111e-015 1.59028e-015 1.19271e-015 3.18055e-015 6.36111e-015 2.26615e-014 9.54166e-015 -3.18055e-015 -1.19271e-015 6.36111e-015 -1.59028e-015 -3.97569e-016 6.36111e-015 6.36111e-015 2.26615e-014 9.54166e-015 -3.18055e-015 -1.19271e-015 6.36111e-015 -1.59028e-015 -3.97569e-016 6.36111e-015 19.2088 0.272634 -1.12094 7.78953 8.84678 40.6635 -12.7955 -15.1923 13.4987 -58.0013 -18.0115 -11.2011 -1.59028e-015 1.59028e-015 -0 1.66237e-006 -1.20332e-006 -4.17109e-006 -5.90617e-007 -8.74801e-007 -3.10722e-006 -1.59028e-015 1.59028e-015 -0 -3.18055e-015 1.59028e-015 6.36111e-015 1.66237e-006 -1.20332e-006 -4.17109e-006 -5.90617e-007 -8.74801e-007 -3.10722e-006 -3.18055e-015 1.59028e-015 6.36111e-015 1.66237e-006 -1.20332e-006 -4.17109e-006 -5.90617e-007 -8.74801e-007 -3.10722e-006 -1.59028e-015 1.59028e-015 -0 -3.18055e-015 1.59028e-015 6.36111e-015 1.66237e-006 -1.20332e-006 -4.17109e-006 -5.90617e-007 -8.74801e-007 -3.10722e-006 -3.18055e-015 1.59028e-015 6.36111e-015 1.66237e-006 -1.20332e-006 -4.17109e-006 -5.90617e-007 -8.74801e-007 -3.10722e-006 20.0354 -52.6803 37.6789 -3.64006 35.3811 2.54352 12.8332 58.7683 -15.2718 -20.7413 -53.0339 -38.5653 3.49607 36.2254 -2.16241 -13.3887 59.5509 15.7926 
0.768608 18.2656 3.42959 178.468 -76.74 -1.20172 -0.0749744 -4.62153 -0.288409 -0.17423 -9.24255 -0.585782 -0.17423 -9.24258 -0.585782 0.17358 0.503845 0.0191736 -2.31019e-008 0.0266147 -1.62323e-007 14.1019 0.902348 -10.8494 -16.4318 -17.3599 -27.1176 3.12422 6.97226 -36.6252 58.0197 -18.5124 9.71477 7.04163e-007 1.07126e-006 -7.95373e-006 6.87622e-007 4.98492e-007 4.76187e-008 -6.87622e-007 -4.98492e-007 -4.76187e-008 6.62086e-032 1.19271e-015 -3.18055e-015 7.04163e-007 1.07126e-006 -7.95373e-006 6.87622e-007 4.98492e-007 4.76187e-008 -6.87622e-007 -4.98492e-007 -4.76187e-008 7.04163e-007 1.07126e-006 -7.95373e-006 6.87622e-007 4.98492e-007 4.76187e-008 -6.87622e-007 -4.98492e-007 -4.76187e-008 6.62086e-032 1.19271e-015 -3.18055e-015 7.04163e-007 1.07126e-006 -7.95373e-006 6.87622e-007 4.98492e-007 4.76187e-008 -6.87622e-007 -4.98492e-007 -4.76187e-008 7.04163e-007 1.07126e-006 -7.95373e-006 6.87622e-007 4.98492e-007 4.76187e-008 -6.87622e-007 -4.98492e-007 -4.76187e-008 19.7005 0.708917 -0.603681 7.71133 8.75243 40.1369 -12.7362 -15.1063 12.9082 -57.7625 -17.9072 -10.6166 1.59028e-015 0 -3.18055e-015 1.59028e-015 0 -6.36111e-015 1.59028e-015 -1.59028e-015 -9.54166e-015 1.59028e-015 0 -3.18055e-015 1.59028e-015 1.59028e-015 3.18055e-015 -1.32417e-030 -4.77083e-015 -1.59028e-014 3.18055e-015 -1.59028e-015 -3.18055e-015 1.59028e-015 1.59028e-015 3.18055e-015 -1.32417e-030 -4.77083e-015 -1.59028e-014 3.18055e-015 -1.59028e-015 -3.18055e-015 1.59028e-015 0 -3.18055e-015 1.59028e-015 1.59028e-015 3.18055e-015 -1.32417e-030 -4.77083e-015 -1.59028e-014 3.18055e-015 -1.59028e-015 -3.18055e-015 1.59028e-015 1.59028e-015 3.18055e-015 -1.32417e-030 -4.77083e-015 -1.59028e-014 3.18055e-015 -1.59028e-015 -3.18055e-015 18.2021 -50.4701 35.2478 -3.63533 34.5865 2.52004 11.5365 58.967 -13.987 -18.9312 -50.8967 -36.0925 3.53938 35.5521 -2.16982 -11.9977 59.6991 14.4357 
0.770555 18.148 3.1141 178.352 -78.6212 -1.33808 -0.0780986 -4.45607 -0.28724 -0.1795 -8.9115 -0.583252 -0.1795 -8.91152 -0.583252 0.214302 0.648555 -0.0246532 1.41091e-007 -0.0396481 2.08711e-007 13.4848 1.72129 -11.8812 -16.2679 -17.4623 -26.8338 3.14626 7.00585 -35.5254 57.8948 -18.7363 8.94647 1.59028e-015 7.95139e-016 -3.18055e-015 0 0 -9.54166e-015 -1.59028e-015 -3.97569e-016 -6.36111e-015 1.59028e-015 1.59028e-015 -3.18055e-015 0 0 -9.54166e-015 1.59028e-015 3.97569e-016 -3.18055e-015 1.59028e-015 -7.95139e-016 -0 0 0 -9.54166e-015 1.59028e-015 3.97569e-016 -3.18055e-015 1.59028e-015 -7.95139e-016 -0 1.59028e-015 1.59028e-015 -3.18055e-015 0 0 -9.54166e-015 1.59028e-015 3.97569e-016 -3.18055e-015 1.59028e-015 -7.95139e-016 -0 0 0 -9.54166e-015 1.59028e-015 3.97569e-016 -3.18055e-015 1.59028e-015 -7.95139e-016 -0 20.1887 1.15001 -0.0897474 7.63226 8.65874 39.61 -12.676 -15.0208 12.3177 -57.525 -17.8006 -10.0328 -3.18055e-015 0 -0 8.82781e-032 1.59028e-015 -3.18055e-015 -1.59028e-015 1.59028e-015 -3.18055e-015 -1.59028e-015 -1.59028e-015 -0 -3.18055e-015 4.77083e-015 6.36111e-015 -3.18055e-015 3.18055e-015 -0 -3.18055e-015 0 -0 -3.18055e-015 4.77083e-015 6.36111e-015 -3.18055e-015 3.18055e-015 -0 -3.18055e-015 0 -0 -1.59028e-015 -1.59028e-015 -0 -3.18055e-015 4.77083e-015 6.36111e-015 -3.18055e-015 3.18055e-015 -0 -3.18055e-015 0 -0 -3.18055e-015 4.77083e-015 6.36111e-015 -3.18055e-015 3.18055e-015 -0 -3.18055e-015 0 -0 16.5748 -48.1978 33.0115 -3.63048 33.7892 2.49661 10.2237 59.1512 -12.6852 -17.3244 -48.6986 -33.8107 3.58155 34.876 -2.17628 -10.5938 59.8311 13.0651 
0.772502 18.0331 2.80251 178.185 -80.5084 -1.52496 -0.0812028 -4.28958 -0.285977 -0.184726 -8.57869 -0.58052 -0.184726 -8.57869 -0.58052 0.255166 0.792067 -0.0685982 -1.38407e-007 -0.105903 1.50998e-007 12.8811 2.55272 -12.9066 -16.1035 -17.564 -26.5495 3.16768 7.03989 -34.4243 57.7666 -18.9587 8.17621 1.59028e-015 -1.98785e-015 -0 3.18055e-015 -1.59028e-015 -0 3.18055e-015 -1.59028e-015 -0 -0 0 3.18055e-015 6.36111e-015 2.70347e-014 1.59028e-014 4.77083e-015 -1.19271e-015 -6.36111e-015 -1.76556e-031 -1.59028e-015 -6.36111e-015 6.36111e-015 2.70347e-014 1.59028e-014 4.77083e-015 -1.19271e-015 -6.36111e-015 -1.76556e-031 -1.59028e-015 -6.36111e-015 -0 0 3.18055e-015 6.36111e-015 2.70347e-014 1.59028e-014 4.77083e-015 -1.19271e-015 -6.36111e-015 -1.76556e-031 -1.59028e-015 -6.36111e-015 6.36111e-015 2.70347e-014 1.59028e-014 4.77083e-015 -1.19271e-015 -6.36111e-015 -1.76556e-031 -1.59028e-015 -6.36111e-015 20.6733 1.59562 0.420857 7.55231 8.56577 39.0831 -12.6149 -14.936 11.7271 -57.2886 -17.6916 -9.44966 1.59028e-015 4.77083e-015 -3.18055e-015 -3.18055e-015 3.18055e-015 -3.18055e-015 -3.18055e-015 3.18055e-015 -6.36111e-015 1.59028e-015 1.59028e-015 -0 -4.77083e-015 1.59028e-015 -3.18055e-015 -3.18055e-015 4.77083e-015 -6.36111e-015 -3.18055e-015 3.18055e-015 -0 -4.77083e-015 1.59028e-015 -3.18055e-015 -3.18055e-015 4.77083e-015 -6.36111e-015 -3.18055e-015 3.18055e-015 -0 1.59028e-015 1.59028e-015 -0 -4.77083e-015 1.59028e-015 -3.18055e-015 -3.18055e-015 4.77083e-015 -6.36111e-015 -3.18055e-015 3.18055e-015 -0 -4.77083e-015 1.59028e-015 -3.18055e-015 -3.18055e-015 4.77083e-015 -6.36111e-015 -3.18055e-015 3.18055e-015 -0 15.1296 -45.8717 30.9458 -3.62544 32.9889 2.47322 8.89583 59.3204 -11.3677 -15.8983 -46.4473 -31.697 3.6225 34.1968 -2.1818 -9.17827 59.9467 11.6823 
